<svg xmlns="http://www.w3.org/2000/svg" width="1440" height="686" fill="none"><g stroke="#fff" stroke-opacity=".06" stroke-width="1.371" clip-path="url(#a)" opacity=".6" style="mix-blend-mode:hard-light"><path d="M0 0h68.571v68.571H0zm68.571 0h68.571v68.571H68.571zm68.572 0h68.571v68.571h-68.571z"/><path d="M205.714 0h68.571v68.571h-68.571zm68.572 0h68.571v68.571h-68.571zm68.571 0h68.571v68.571h-68.571zm68.572 0H480v68.571h-68.571zM480 0h68.571v68.571H480zm68.571 0h68.571v68.571h-68.571zm68.572 0h68.571v68.571h-68.571zm68.571 0h68.571v68.571h-68.571z"/><path d="M754.285 0h68.571v68.571h-68.571zm68.572 0h68.571v68.571h-68.571zm68.572 0H960v68.571h-68.571zM960 0h68.571v68.571H960z"/><path d="M1028.57 0h68.571v68.571h-68.571z"/><path d="M1097.14 0h68.571v68.571h-68.571z"/><path d="M1165.71 0h68.571v68.571h-68.571zm68.58 0h68.571v68.571h-68.571z"/><path d="M1302.86 0h68.571v68.571h-68.571z"/><path d="M1371.43 0h68.571v68.571h-68.571zM0 68.571h68.571v68.571H0zm68.571 0h68.571v68.571H68.571z"/><path fill="#fff" fill-opacity=".08" d="M137.143 68.571h68.571v68.571h-68.571z"/><path d="M205.714 68.571h68.571v68.571h-68.571zm68.572 0h68.571v68.571h-68.571zm68.571 0h68.571v68.571h-68.571zm68.572 0H480v68.571h-68.571zm68.571 0h68.571v68.571H480zm68.571 0h68.571v68.571h-68.571z"/><path fill="#fff" fill-opacity=".09" d="M617.143 68.571h68.571v68.571h-68.571z"/><path d="M685.714 68.571h68.571v68.571h-68.571z"/><path d="M754.285 68.571h68.571v68.571h-68.571zm68.572 0h68.571v68.571h-68.571zm68.572 0H960v68.571h-68.571zm68.571 0h68.571v68.571H960z"/><path d="M1028.57 68.571h68.571v68.571h-68.571z"/><path d="M1097.14 68.571h68.571v68.571h-68.571z"/><path d="M1165.71 68.571h68.571v68.571h-68.571zm68.58 0h68.571v68.571h-68.571z"/><path d="M1302.86 68.571h68.571v68.571h-68.571z"/><path d="M1371.43 68.571h68.571v68.571h-68.571zM0 137.143h68.571v68.571H0zm68.571 0h68.571v68.571H68.571zm68.572 0h68.571v68.571h-68.571z"/><path d="M205.714 137.143h68.571v68.571h-68.571zm68.572 0h68.571v68.571h-68.571zm68.571 0h68.571v68.571h-68.571zm68.572 0H480v68.571h-68.571zm68.571 0h68.571v68.571H480zm68.571 0h68.571v68.571h-68.571zm68.572 0h68.571v68.571h-68.571zm68.571 0h68.571v68.571h-68.571z"/><path d="M754.285 137.143h68.571v68.571h-68.571zm68.572 0h68.571v68.571h-68.571zm68.572 0H960v68.571h-68.571zm68.571 0h68.571v68.571H960z"/><path d="M1028.57 137.143h68.571v68.571h-68.571z"/><path fill="#fff" fill-opacity=".1" d="M1097.14 137.143h68.571v68.571h-68.571z"/><path d="M1165.71 137.143h68.571v68.571h-68.571zm68.58 0h68.571v68.571h-68.571z"/><path d="M1302.86 137.143h68.571v68.571h-68.571z"/><path d="M1371.43 137.143h68.571v68.571h-68.571zM0 205.714h68.571v68.571H0zm68.571 0h68.571v68.571H68.571zm68.572 0h68.571v68.571h-68.571z"/><path d="M205.714 205.714h68.571v68.571h-68.571zm68.572 0h68.571v68.571h-68.571zm68.571 0h68.571v68.571h-68.571zm68.572 0H480v68.571h-68.571zm68.571 0h68.571v68.571H480zm68.571 0h68.571v68.571h-68.571zm68.572 0h68.571v68.571h-68.571zm68.571 0h68.571v68.571h-68.571z"/><path d="M754.285 205.714h68.571v68.571h-68.571zm68.572 0h68.571v68.571h-68.571zm68.572 0H960v68.571h-68.571zm68.571 0h68.571v68.571H960z"/><path d="M1028.57 205.714h68.571v68.571h-68.571z"/><path d="M1097.14 205.714h68.571v68.571h-68.571z"/><path d="M1165.71 205.714h68.571v68.571h-68.571zm68.58 0h68.571v68.571h-68.571z"/><path d="M1302.86 205.714h68.571v68.571h-68.571z"/><path d="M1371.43 205.714h68.571v68.571h-68.571zM0 274.286h68.571v68.571H0zm68.571 0h68.571v68.571H68.571zm68.572 0h68.571v68.571h-68.571z"/><path fill="#fff" fill-opacity=".05" d="M205.714 274.286h68.571v68.571h-68.571z"/><path d="M274.286 274.286h68.571v68.571h-68.571zm68.571 0h68.571v68.571h-68.571zm68.572 0H480v68.571h-68.571zm68.571 0h68.571v68.571H480zm68.571 0h68.571v68.571h-68.571zm68.572 0h68.571v68.571h-68.571zm68.571 0h68.571v68.571h-68.571z"/><path d="M754.285 274.286h68.571v68.571h-68.571z"/><path fill="#fff" fill-opacity=".05" d="M822.857 274.286h68.571v68.571h-68.571z"/><path d="M891.429 274.286H960v68.571h-68.571zm68.571 0h68.571v68.571H960z"/><path d="M1028.57 274.286h68.571v68.571h-68.571z"/><path d="M1097.14 274.286h68.571v68.571h-68.571z"/><path d="M1165.71 274.286h68.571v68.571h-68.571zm68.58 0h68.571v68.571h-68.571z"/><path d="M1302.86 274.286h68.571v68.571h-68.571z"/><path d="M1371.43 274.286h68.571v68.571h-68.571zM0 342.857h68.571v68.571H0zm68.571 0h68.571v68.571H68.571zm68.572 0h68.571v68.571h-68.571z"/><path d="M205.714 342.857h68.571v68.571h-68.571zm68.572 0h68.571v68.571h-68.571zm68.571 0h68.571v68.571h-68.571zm68.572 0H480v68.571h-68.571zm68.571 0h68.571v68.571H480zm68.571 0h68.571v68.571h-68.571zm68.572 0h68.571v68.571h-68.571zm68.571 0h68.571v68.571h-68.571z"/><path d="M754.285 342.857h68.571v68.571h-68.571zm68.572 0h68.571v68.571h-68.571zm68.572 0H960v68.571h-68.571zm68.571 0h68.571v68.571H960z"/><path d="M1028.57 342.857h68.571v68.571h-68.571z"/><path d="M1097.14 342.857h68.571v68.571h-68.571z"/><path d="M1165.71 342.857h68.571v68.571h-68.571z"/><path fill="#fff" fill-opacity=".07" d="M1234.29 342.857h68.571v68.571h-68.571z"/><path d="M1302.86 342.857h68.571v68.571h-68.571z"/><path d="M1371.43 342.857h68.571v68.571h-68.571zM0 411.429h68.571V480H0zm68.571 0h68.571V480H68.571zm68.572 0h68.571V480h-68.571z"/><path d="M205.714 411.429h68.571V480h-68.571zm68.572 0h68.571V480h-68.571zm68.571 0h68.571V480h-68.571zm68.572 0H480V480h-68.571zm68.571 0h68.571V480H480zm68.571 0h68.571V480h-68.571zm68.572 0h68.571V480h-68.571zm68.571 0h68.571V480h-68.571z"/><path d="M754.285 411.429h68.571V480h-68.571zm68.572 0h68.571V480h-68.571zm68.572 0H960V480h-68.571zm68.571 0h68.571V480H960z"/><path d="M1028.57 411.429h68.571V480h-68.571z"/><path d="M1097.14 411.429h68.571V480h-68.571z"/><path d="M1165.71 411.429h68.571V480h-68.571zm68.58 0h68.571V480h-68.571z"/><path d="M1302.86 411.429h68.571V480h-68.571z"/><path d="M1371.43 411.429h68.571V480h-68.571zM0 480h68.571v68.571H0zm68.571 0h68.571v68.571H68.571zm68.572 0h68.571v68.571h-68.571z"/><path d="M205.714 480h68.571v68.571h-68.571zm68.572 0h68.571v68.571h-68.571zm68.571 0h68.571v68.571h-68.571zm68.572 0H480v68.571h-68.571zM480 480h68.571v68.571H480z"/><path fill="#fff" fill-opacity=".05" d="M548.571 480h68.571v68.571h-68.571z"/><path d="M617.143 480h68.571v68.571h-68.571zm68.571 0h68.571v68.571h-68.571z"/><path d="M754.285 480h68.571v68.571h-68.571zm68.572 0h68.571v68.571h-68.571zm68.572 0H960v68.571h-68.571zM960 480h68.571v68.571H960z"/><path d="M1028.57 480h68.571v68.571h-68.571z"/><path d="M1097.14 480h68.571v68.571h-68.571z"/><path d="M1165.71 480h68.571v68.571h-68.571zm68.58 0h68.571v68.571h-68.571z"/><path d="M1302.86 480h68.571v68.571h-68.571z"/><path d="M1371.43 480h68.571v68.571h-68.571zM0 548.571h68.571v68.571H0zm68.571 0h68.571v68.571H68.571zm68.572 0h68.571v68.571h-68.571z"/><path d="M205.714 548.571h68.571v68.571h-68.571z"/><path fill="#fff" fill-opacity=".05" d="M274.286 548.571h68.571v68.571h-68.571z"/><path d="M342.857 548.571h68.571v68.571h-68.571zm68.572 0H480v68.571h-68.571zm68.571 0h68.571v68.571H480zm68.571 0h68.571v68.571h-68.571zm68.572 0h68.571v68.571h-68.571zm68.571 0h68.571v68.571h-68.571z"/><path d="M754.285 548.571h68.571v68.571h-68.571zm68.572 0h68.571v68.571h-68.571zm68.572 0H960v68.571h-68.571zm68.571 0h68.571v68.571H960z"/><path d="M1028.57 548.571h68.571v68.571h-68.571z"/><path d="M1097.14 548.571h68.571v68.571h-68.571z"/><path d="M1165.71 548.571h68.571v68.571h-68.571zm68.58 0h68.571v68.571h-68.571z"/><path d="M1302.86 548.571h68.571v68.571h-68.571z"/><path d="M1371.43 548.571h68.571v68.571h-68.571zM0 617.143h68.571v68.571H0zm68.571 0h68.571v68.571H68.571zm68.572 0h68.571v68.571h-68.571z"/><path d="M205.714 617.143h68.571v68.571h-68.571zm68.572 0h68.571v68.571h-68.571zm68.571 0h68.571v68.571h-68.571zm68.572 0H480v68.571h-68.571zm68.571 0h68.571v68.571H480zm68.571 0h68.571v68.571h-68.571zm68.572 0h68.571v68.571h-68.571zm68.571 0h68.571v68.571h-68.571z"/><path d="M754.285 617.143h68.571v68.571h-68.571zm68.572 0h68.571v68.571h-68.571zm68.572 0H960v68.571h-68.571zm68.571 0h68.571v68.571H960z"/><path d="M1028.57 617.143h68.571v68.571h-68.571z"/><path d="M1097.14 617.143h68.571v68.571h-68.571z"/><path d="M1165.71 617.143h68.571v68.571h-68.571zm68.58 0h68.571v68.571h-68.571z"/><path d="M1302.86 617.143h68.571v68.571h-68.571z"/><path d="M1371.43 617.143h68.571v68.571h-68.571zM0 685.714h68.571v68.571H0zm68.571 0h68.571v68.571H68.571zm68.572 0h68.571v68.571h-68.571z"/><path d="M205.714 685.714h68.571v68.571h-68.571zm68.572 0h68.571v68.571h-68.571zm68.571 0h68.571v68.571h-68.571zm68.572 0H480v68.571h-68.571zm68.571 0h68.571v68.571H480zm68.571 0h68.571v68.571h-68.571zm68.572 0h68.571v68.571h-68.571zm68.571 0h68.571v68.571h-68.571z"/><path d="M754.285 685.714h68.571v68.571h-68.571zm68.572 0h68.571v68.571h-68.571zm68.572 0H960v68.571h-68.571zm68.571 0h68.571v68.571H960z"/><path d="M1028.57 685.714h68.571v68.571h-68.571z"/><path d="M1097.14 685.714h68.571v68.571h-68.571z"/><path d="M1165.71 685.714h68.571v68.571h-68.571zm68.58 0h68.571v68.571h-68.571z"/><path d="M1302.86 685.714h68.571v68.571h-68.571z"/><path d="M1371.43 685.714h68.571v68.571h-68.571z"/></g><defs><clipPath id="a"><path fill="#fff" d="M0 0h1440v686H0z"/></clipPath></defs></svg>